<svg viewBox="175.19999999999993 187.58520900321548 678.8999999999999 613.1189710610931" xmlns="http://www.w3.org/2000/svg" xmlns:xlink="http://www.w3.org/1999/xlink" xmlns:blush="http://design.blush" overflow="visible" width="500.00000000000006px" height="451.5532265879314px"><g id="Master/Scenes/Remote Life" stroke="none" stroke-width="1" fill="none" fill-rule="evenodd"><g id="Background" transform="translate(271.000000, 173.000000) scale(1 1)" fill="#000" blush:width="479" blush:height="563" blush:component="Background"><g id="Background/4" stroke="none" stroke-width="1" fill="none" fill-rule="evenodd"><path d="M359.467182,98.8754581 C390.688257,130.175458 411.707515,171.775458 428.153546,217.875458 C444.599577,263.975458 456.296487,314.375458 450.492006,365.675458 C444.687524,417.075458 421.293705,469.175458 384.268148,494.175458 C347.52578,518.826458 297.33675,516.916748 250.170633,511.927564 L248.742299,511.775458 C201.16314,506.675458 156.925955,498.575458 116.470478,474.875458 C76.1029469,451.175458 39.517124,411.675458 30.3706682,365.575458 C21.4027443,319.837458 39.3281441,267.434778 59.826511,221.951604 L60.4484362,220.575458 C81.1159083,174.775458 104.157941,136.075458 135.379016,104.775458 C166.600091,73.4754581 206.000208,49.5754581 246.455685,48.0754581 C286.823216,46.5754581 328.15816,67.5754581 359.467182,98.8754581 Z M244.460359,181.849962 L241.831785,182.134851 C221.929048,184.355775 203.391661,187.955388 186.392849,197.880747 C168.874864,208.131527 152.997997,225.216161 149.028781,245.155442 C145.186068,264.68893 152.721843,287.032869 161.475863,306.531063 L162.081397,307.871186 C171.0503,327.680711 181.049673,344.419326 194.598441,357.957277 C208.147209,371.495227 225.245373,381.832512 242.801524,382.481295 C260.319509,383.130079 278.257315,374.047109 291.844249,360.509159 C305.174488,347.189562 314.219186,329.557536 321.304643,310.002271 L321.651539,309.038996 C328.788496,289.099715 333.864513,267.300587 331.345587,245.11219 C328.826661,222.88054 318.674627,200.346124 302.606932,189.533065 C286.674254,178.879062 264.915101,179.695699 244.460359,181.849962 L244.460359,181.849962 Z" id="Shape" fill-opacity=".04" fill="#000"/></g></g><g id="Group-96" transform="translate(210.000000, 192.000000)"><line x1="221.708" y1="395.84" x2="221.708" y2="409.537" id="Stroke-3" stroke="#000" stroke-width="4" stroke-linecap="round" stroke-linejoin="round"/><polygon id="Fill-4" fill="#000" points="136.851 445.734 402.119 445.734 402.119 408.16 136.851 408.16"/><polygon id="Fill-5" fill="#000" points="367.148 213.334 526.211 213.334 526.211 175.759 367.148 175.759"/><g id="Group-95" transform="translate(0.000000, 0.039000)"><path d="M410.9389,181.359 C406.3209,176.632 397.2719,166.007 393.9109,149.857 C392.2699,141.971 392.4629,135.068 393.0599,129.991 L469.5389,129.991 C470.1339,135.068 470.3279,141.971 468.6869,149.857 C465.3259,166.007 456.2769,176.632 451.6589,181.359" id="Stroke-6" stroke="#000" stroke-width="3" stroke-linecap="round" stroke-linejoin="round"/><path d="M401.5834,129.9957 C398.9994,125.9447 396.9084,122.3317 395.2434,119.3207 C391.6144,112.7547 388.1554,105.8527 386.0174,98.6407 C384.4534,93.3647 383.7384,87.7417 384.7724,82.3377 C385.0014,81.1457 385.3304,79.9337 386.0774,78.9777 C387.8434,76.7217 390.4224,77.7177 392.3384,79.1487 C404.0714,87.9127 411.6634,103.7667 416.3964,117.2187 C417.7554,121.0947 419.0474,125.3537 420.1964,129.9957" id="Stroke-8" stroke="#000" stroke-width="3" stroke-linecap="round" stroke-linejoin="round"/><path d="M433.85,129.9957 C435.141,113.0637 436.014,96.1017 434.863,79.1337 C434.56,74.6687 434.262,66.3507 429.271,64.3457 C424.233,62.3207 420.29,71.3177 419.086,74.7347 C414.354,88.1737 415.484,103.2467 416.397,117.2187" id="Stroke-10" stroke="#000" stroke-width="3" stroke-linecap="round" stroke-linejoin="round"/><path d="M452.4086,113.5944 C454.8056,111.1314 457.5656,109.0074 460.5546,107.2984 C463.0176,105.8974 467.9446,103.8394 469.3686,107.6934 C469.7736,108.7774 469.7076,109.9924 469.5436,111.1414 C469.1276,113.9454 468.1966,116.6494 467.1236,119.2654 C465.5916,122.9884 463.7516,126.6014 461.5956,129.9954" id="Stroke-12" stroke="#000" stroke-width="3" stroke-linecap="round" stroke-linejoin="round"/><path d="M448.0942,125.9337 C448.1382,125.8137 448.1822,125.7037 448.2262,125.5837 C448.9482,123.5357 449.6822,121.4777 450.4052,119.4307 C451.0832,117.5027 451.7512,115.5547 452.4082,113.5947 C455.3862,104.5287 457.7842,95.0907 457.2152,85.5537 C457.1062,83.7257 456.9082,81.0207 455.3862,79.7617 C452.4522,77.3307 448.5322,82.1377 446.9232,84.1417 C444.6462,86.9667 442.8832,90.1637 441.2742,93.4047 C438.9742,98.0247 436.9592,102.7657 435.0762,107.5727" id="Stroke-14" stroke="#000" stroke-width="3" stroke-linecap="round" stroke-linejoin="round"/><polyline id="Stroke-16" stroke="#000" stroke-width="3" stroke-linecap="round" stroke-linejoin="round" points="468.2953 147.8063 460.8973 143.8063 453.5023 147.8063 446.1063 143.8063 438.7083 147.8063 431.3113 143.8063 423.9123 147.8063 416.5103 143.8063 409.1103 147.8063 401.7063 143.8063 394.3023 147.8063"/><polyline id="Stroke-18" stroke="#000" stroke-width="3" stroke-linecap="round" stroke-linejoin="round" points="464.4418 161.5363 457.8208 157.5363 451.1958 161.5363 444.5688 157.5363 437.9408 161.5363 431.3138 157.5363 424.6848 161.5363 418.0588 157.5363 411.4278 161.5363 404.7928 157.5363 398.1568 161.5363"/><path d="M100.687,131.7164 C100.687,146.0754 89.046,157.7164 74.687,157.7164 C60.328,157.7164 48.687,146.0754 48.687,131.7164 C48.687,117.3574 60.328,105.7164 74.687,105.7164 C89.046,105.7164 100.687,117.3574 100.687,131.7164" id="Fill-20" fill="#000"/><path d="M26.7602,92.5597 C26.7602,99.8097 20.8832,105.6877 13.6322,105.6877 C6.3822,105.6877 0.5042,99.8097 0.5042,92.5597 C0.5042,85.3097 6.3822,79.4317 13.6322,79.4317 C20.8832,79.4317 26.7602,85.3097 26.7602,92.5597" id="Fill-22" fill="#000"/><path d="M150.7124,79.297 C150.7124,86.547 144.8344,92.425 137.5844,92.425 C130.3334,92.425 124.4554,86.547 124.4554,79.297 C124.4554,72.047 130.3334,66.169 137.5844,66.169 C144.8344,66.169 150.7124,72.047 150.7124,79.297" id="Fill-24" fill="#000"/><path d="M48.6586,208.38 C48.6586,215.63 42.7806,221.508 35.5306,221.508 C28.2796,221.508 22.4026,215.63 22.4026,208.38 C22.4026,201.13 28.2796,195.252 35.5306,195.252 C42.7806,195.252 48.6586,201.13 48.6586,208.38" id="Fill-26" fill="#000"/><path d="M145.2407,171.1749 C145.2407,178.4249 139.3637,184.3029 132.1127,184.3029 C124.8627,184.3029 118.9847,178.4249 118.9847,171.1749 C118.9847,163.9249 124.8627,158.0469 132.1127,158.0469 C139.3637,158.0469 145.2407,163.9249 145.2407,171.1749" id="Fill-28" fill="#000"/><polyline id="Stroke-30" stroke="#000" stroke-width="4" stroke-linecap="round" stroke-linejoin="round" points="35.5307 208.38 74.6867 131.716 13.6327 92.56"/><polyline id="Stroke-32" stroke="#000" stroke-width="4" stroke-linecap="round" stroke-linejoin="round" points="137.5844 79.297 74.6874 131.716 132.1124 171.175"/><path d="M567.5512,335.1681 C553.6002,359.3001 527.5012,375.5291 497.6162,375.5291 C467.7312,375.5291 441.6492,359.3001 427.6972,335.1681 C441.6322,311.0211 467.7312,294.7911 497.6162,294.7911 C527.5182,294.7911 553.6002,311.0211 567.5512,335.1681 Z" id="Stroke-34" stroke="#000" stroke-width="3" stroke-linecap="round" stroke-linejoin="round"/><path d="M497.6246,310.7903 C511.0836,310.7903 521.9946,321.7013 521.9946,335.1603 C521.9946,348.6193 511.0836,359.5303 497.6246,359.5303 C484.1656,359.5303 473.2546,348.6193 473.2546,335.1603 C473.2546,321.7013 484.1656,310.7903 497.6246,310.7903 Z M509.5623,323.271 C505.9113,323.271 502.9523,326.23 502.9523,329.88 C502.9523,333.53 505.9113,336.489 509.5623,336.489 C513.2123,336.489 516.1713,333.53 516.1713,329.88 C516.1713,326.23 513.2123,323.271 509.5623,323.271 Z" id="Combined-Shape" fill="#000"/><line x1="617.851" y1="335.16" x2="600.349" y2="335.16" id="Stroke-38" stroke="#000" stroke-width="3" stroke-linecap="round" stroke-linejoin="round"/><line x1="594.544" y1="294.791" x2="585.793" y2="309.948" id="Stroke-40" stroke="#000" stroke-width="3" stroke-linecap="round" stroke-linejoin="round"/><line x1="594.544" y1="375.529" x2="585.793" y2="360.372" id="Stroke-42" stroke="#000" stroke-width="3" stroke-linecap="round" stroke-linejoin="round"/><path d="M196.4917,105.1788 L196.4917,22.3428 C196.4917,10.2488 206.2967,0.4448 218.3897,0.4448 L476.0997,0.4448 C488.1947,0.4448 497.9987,10.2488 497.9987,22.3428 L497.9987,152.9118" id="Stroke-44" stroke="#000" stroke-width="3" stroke-linecap="round" stroke-linejoin="round"/><line x1="327.856" y1="30.445" x2="366.635" y2="30.445" id="Stroke-46" stroke="#000" stroke-width="3" stroke-linecap="round" stroke-linejoin="round"/><path d="M497.9985,400.6525 L497.9985,580.5985 C497.9985,592.6925 488.1945,602.4965 476.1005,602.4965 L218.3905,602.4965 C206.2965,602.4965 196.4915,592.6925 196.4915,580.5985 L196.4915,481.7725" id="Stroke-48" stroke="#000" stroke-width="3" stroke-linecap="round" stroke-linejoin="round"/><line x1="327.856" y1="572.5" x2="366.635" y2="572.5" id="Stroke-50" stroke="#000" stroke-width="3" stroke-linecap="round" stroke-linejoin="round"/><line x1="497.625" y1="233.275" x2="497.625" y2="275.087" id="Stroke-52" stroke="#000" stroke-width="3" stroke-linecap="round" stroke-linejoin="round"/><path d="M574.8705,528.6974 C585.5245,538.3234 586.3595,554.7634 576.7335,565.4194 C567.1075,576.0744 550.6675,576.9094 540.0125,567.2834 C529.3565,557.6574 528.5215,541.2164 538.1475,530.5604 C547.7735,519.9054 564.2155,519.0714 574.8705,528.6974" id="Fill-65" fill="#000"/><path d="M572.477,468.2775 C577.857,473.1375 578.278,481.4385 573.417,486.8195 C568.557,492.1995 560.256,492.6205 554.875,487.7595 C549.496,482.8995 549.075,474.5975 553.935,469.2175 C558.795,463.8385 567.096,463.4175 572.477,468.2775" id="Fill-66" fill="#000"/><path d="M634.017,522.088 C639.397,526.948 639.819,535.25 634.958,540.63 C630.098,546.01 621.796,546.432 616.416,541.571 C611.036,536.711 610.615,528.409 615.475,523.029 C620.335,517.65 628.637,517.228 634.017,522.088" id="Fill-67" fill="#000"/><polyline id="Stroke-68" stroke="#000" stroke-width="4" stroke-linecap="round" stroke-linejoin="round" points="563.6762 478.0187 557.4412 547.9907 625.2162 531.8307"/><path d="M189.9516,202.4288 C181.3666,210.4258 182.1736,224.7508 190.7066,232.4878 C203.0726,243.6998 226.1536,235.4568 229.1676,219.0958 C229.2636,218.5678 229.3376,218.0348 229.3866,217.4998 C230.1916,208.5948 224.4156,200.2868 225.7086,191.4258 C226.1196,188.6068 227.9186,186.2168 229.6096,183.9238 C233.3906,178.8008 238.6616,171.5998 237.4306,164.8388 C236.7626,161.1598 234.1436,158.1588 231.3976,155.6218 C227.8066,152.3038 218.9446,145.4928 224.4446,139.9358 C225.2786,139.0938 226.4456,138.4848 227.5966,138.2198 C228.5476,138.0008 229.5936,138.0648 230.4306,138.5638 C233.1816,140.2038 233.8876,143.4968 237.6716,143.6068 C239.6066,143.6628 241.5456,142.7378 242.7196,141.1978 C244.5136,138.8448 244.3756,135.5408 243.6386,132.6748 C243.2296,131.0848 242.6596,129.4328 243.0616,127.8408 C243.6906,125.3568 246.5206,123.9998 249.0826,124.0388 C251.6446,124.0788 254.0596,125.1428 256.5096,125.8958 C263.3216,127.9908 271.0726,127.6038 277.1666,123.9068 C280.3886,121.9528 283.2226,118.7878 283.3996,115.0248 C283.5506,111.8168 281.7486,108.8208 279.5596,106.4718 C273.9126,100.4118 265.5896,97.4578 257.3606,96.5058 C249.2626,95.5698 240.9046,96.3968 233.3226,99.3918 C225.7416,102.3878 218.9736,107.6068 214.5696,114.4668 C210.8576,120.2468 208.9646,127.0368 208.5986,133.8658 C208.2266,140.8308 209.8906,147.3858 211.0856,154.1668 C212.0556,159.6788 209.8736,165.8998 205.9596,169.8138 C202.9846,172.7878 199.4186,175.1098 196.3646,178.0038 C193.1616,181.0388 190.5576,184.9508 190.3156,189.4758 C190.1456,192.6578 191.5986,194.3708 192.6436,197.1258 C193.4906,199.3578 191.5646,200.9528 190.0946,202.2968 C190.0466,202.3408 189.9986,202.3848 189.9516,202.4288" id="Fill-69" fill="#000"/><path d="M278.145,123.2623 C280.137,132.2293 280.247,139.7403 279.962,144.8753 C279.612,151.5103 278.801,163.7733 270.952,175.1933 C266.561,181.5763 262.958,183.3503 261.929,183.8323 C253.532,187.6973 244.696,183.7113 242.549,182.6823" id="Stroke-70" stroke="#000" stroke-width="3" stroke-linecap="round" stroke-linejoin="round"/><path d="M253.2143,185.4635 C253.9373,190.1275 253.9693,197.1565 249.7653,203.6825 C248.8013,205.1825 245.4183,210.2625 238.6083,212.9885 C235.2463,214.3245 232.0713,214.6965 229.4333,214.6425" id="Stroke-71" stroke="#000" stroke-width="3" stroke-linecap="round" stroke-linejoin="round"/><path d="M170.8344,319.5441 C167.1774,303.7451 164.1774,286.1061 162.5454,266.8801 C160.9584,248.3871 159.0634,232.4131 161.7134,215.6271 C162.3374,211.7081 164.4614,207.9531 168.6884,205.5771 C171.8414,203.8031 175.2464,201.9961 178.8814,200.2111 C183.2284,198.0771 187.4544,196.1821 191.4834,194.5071" id="Stroke-72" stroke="#000" stroke-width="3" stroke-linecap="round" stroke-linejoin="round"/><path d="M253.3452,186.3829 C258.6992,188.2339 262.6742,189.3399 269.0022,191.6279 C277.2582,194.6169 280.2582,195.8209 284.3532,198.9519 C292.0382,204.8429 294.8862,213.1749 296.7902,219.0219 C306.3712,248.3209 314.4182,278.2999 316.2252,285.0989 C319.9582,289.9489 323.9222,294.8979 328.1382,299.9239 C332.8022,305.4969 337.4332,310.7519 341.9772,315.7119" id="Stroke-73" stroke="#000" stroke-width="3" stroke-linecap="round" stroke-linejoin="round"/><path d="M189.9614,387.9698 C179.1684,380.3438 166.5834,371.6618 157.3334,362.1608 C149.4454,354.0588 140.5684,342.6238 143.5454,330.5738 C145.0714,324.3928 150.1574,320.0688 156.2664,318.7128 C168.1994,316.0648 181.9994,323.7588 192.6944,328.2718 C213.8084,337.1818 235.2224,345.3258 257.0084,352.4148" id="Stroke-74" stroke="#000" stroke-width="3" stroke-linecap="round" stroke-linejoin="round"/><path d="M162.7905,412.2814 C156.2805,407.4024 154.7725,396.9094 160.7035,390.9424 C163.9595,387.6664 169.4855,386.8494 173.9015,386.6354 C179.3705,386.3714 185.0985,388.0904 190.5665,387.7614 C196.1495,387.4264 201.2495,384.9044 206.8205,384.5014 C209.6865,384.2944 212.6825,384.4904 215.2265,385.8284 C217.2905,386.9154 218.9195,388.6824 220.2865,390.5754 C221.0875,391.6844 222.9635,394.4754 221.7075,395.8014 C221.2095,396.3264 220.3665,397.3184 219.6525,397.2004 C216.1695,396.6244 212.7435,395.9794 209.1235,395.2474 C205.6845,394.5524 202.2095,394.0204 198.6885,393.7884 C194.0705,393.4844 188.0535,393.6624 185.4235,398.1324 C182.5475,403.0234 185.5725,408.5524 190.0235,411.1774" id="Fill-75" fill="#000"/><path d="M208.1665,334.6368 L257.0085,342.1938 L259.5815,330.3068 C239.1125,319.7918 218.6435,309.2778 198.1745,298.7628 C197.6135,286.4248 197.0535,274.0878 196.4915,261.7498" id="Stroke-76" stroke="#000" stroke-width="3" stroke-linecap="round" stroke-linejoin="round"/><polyline id="Stroke-77" stroke="#000" stroke-width="3" stroke-linecap="round" stroke-linejoin="round" points="259.5815 330.3068 277.0225 333.4698 292.5825 344.5838"/><polyline id="Stroke-78" stroke="#000" stroke-width="3" stroke-linecap="round" stroke-linejoin="round" points="257.0082 342.1935 274.7552 346.0315 283.6532 356.8485"/><polyline id="Stroke-79" stroke="#000" stroke-width="3" stroke-linecap="round" stroke-linejoin="round" points="274.9643 346.92 232.5343 360.687 281.3383 373.1 312.7873 324.049 396.5873 301.972 375.2943 337.697"/><polyline id="Stroke-80" stroke="#000" stroke-width="3" stroke-linecap="round" stroke-linejoin="round" points="222.0707 394.1036 282.6057 373.4216 362.3127 354.0016"/><polyline id="Stroke-81" stroke="#000" stroke-width="3" stroke-linecap="round" stroke-linejoin="round" points="292.5825 334.0656 282.2395 300.9306 282.2395 255.8216 290.9965 300.9306 319.1825 322.3646"/><path d="M362.9487,408.1212 C364.1347,407.0242 375.7687,395.9362 373.1967,382.0852 C372.1427,376.4112 369.1197,372.5032 367.9337,371.0062 C360.7567,361.9382 351.3477,359.9712 340.4537,359.3272" id="Stroke-82" stroke="#000" stroke-width="3" stroke-linecap="round" stroke-linejoin="round"/><path d="M380.7563,346.9005 C380.7563,352.7515 376.0143,357.4935 370.1633,357.4935 C364.3123,357.4935 359.5693,352.7515 359.5693,346.9005 C359.5693,341.0495 364.3123,336.3065 370.1633,336.3065 C376.0143,336.3065 380.7563,341.0495 380.7563,346.9005 Z" id="Stroke-83" stroke="#000" stroke-width="3" stroke-linecap="round" stroke-linejoin="round"/><polyline id="Stroke-84" stroke="#000" stroke-width="3" stroke-linecap="round" stroke-linejoin="round" points="232.5346 360.6866 232.5346 368.0666 271.6356 377.1696"/><polyline id="Stroke-85" stroke="#000" stroke-width="3" stroke-linecap="round" stroke-linejoin="round" points="355.8852 362.1212 362.0932 360.4752 364.4662 355.8292"/><path d="M253.6938,185.7404 C252.1128,185.7894 249.9048,185.7144 247.3728,185.1554 C244.5878,184.5404 242.4568,183.5724 241.0518,182.8094 C241.3178,185.0704 241.9928,188.2644 243.7948,191.7984 C245.9838,196.0944 248.9128,199.0774 250.9568,200.8534 C251.8908,199.2894 252.9658,197.0774 253.5818,194.3104 C254.3748,190.7404 254.0768,187.7174 253.6938,185.7404" id="Fill-86" fill="#000"/></g></g><g id="Element" transform="translate(132.000000, 393.000000) scale(1 1)" blush:width="253" blush:height="403" blush:component="Element"><g id="Element/Vase" stroke="none" stroke-width="1" fill="none" fill-rule="evenodd"><g id="Group" transform="translate(48.000000, 52.000000)"><polygon id="Stroke-56" stroke="#000" stroke-width="3" stroke-linecap="round" stroke-linejoin="round" points="52.4057 189.847262 121.9917 189.847262 121.9917 173.954262 52.4057 173.954262"/><polyline id="Stroke-58" stroke="#000" stroke-width="3" stroke-linecap="round" stroke-linejoin="round" points="117.1397 189.850062 122.2087 264.380062 123.3897 281.640062 128.0887 350.670062 46.3097 350.670062 51.0087 281.640062 52.1897 264.380062 57.2587 189.850062"/><path d="M66.1631,169.210462 C60.5171,165.549462 55.5801,160.660462 53.7811,154.088462 C51.4841,145.693462 56.3041,141.847462 53.8581,132.362462 C51.7491,124.182462 45.9551,118.480462 42.8121,115.387462 C36.2431,108.922462 32.8431,109.365462 29.2131,103.518462 C26.5121,99.1674621 23.7181,91.3884621 26.9621,87.6254621 C31.0731,82.8574621 42.5911,87.1894621 43.5361,87.5564621 C58.3281,93.2864621 70.7391,111.994462 69.8061,129.776462 C69.3551,138.347462 66.0641,141.781462 67.8751,150.165462 C69.6531,158.397462 74.8311,164.362462 79.0941,168.204462" id="Stroke-59" stroke="#000" stroke-width="3" stroke-linecap="round" stroke-linejoin="round"/><path d="M79.6319,142.705562 C81.6499,136.531562 82.5019,129.946562 82.3609,123.453562 C82.1629,114.366562 79.5639,105.829562 76.1909,97.4665621 C73.1069,89.8205621 66.9219,82.2695621 67.5659,73.6155621 C68.1439,65.8345621 73.6669,59.2305621 75.2619,51.6295621 C76.9029,43.8095621 75.9569,35.5805621 73.6359,27.9985621 C72.5119,24.3285621 71.0699,20.7365621 70.4029,16.9565621 C69.7359,13.1765621 69.9149,9.08256214 71.8689,5.77856214 C75.6059,-0.537437862 85.1369,-1.68643786 91.2429,2.38356214 C97.3499,6.45456214 100.1059,14.3235621 99.6729,21.6495621 C99.2399,28.9755621 96.0869,35.8625621 92.4529,42.2375621 C88.5849,49.0225621 83.9269,56.3295621 85.3359,64.0115621 C86.0539,67.9255621 88.2909,71.3575621 90.1019,74.9015621 C94.2519,83.0265621 96.2859,92.2215621 95.9509,101.339562 C95.5849,111.302562 92.4719,120.925562 90.3269,130.660562 C87.4319,143.800562 88.7789,155.394562 92.0279,168.267562" id="Stroke-60" stroke="#000" stroke-width="3" stroke-linecap="round" stroke-linejoin="round"/><path d="M100.9824,164.378362 C94.7204,154.605362 99.2054,142.863362 105.0964,134.077362 C109.9554,126.831362 116.0324,120.326362 119.6994,112.410362 C125.3714,100.166362 124.6754,85.9083621 128.9674,73.1143621 C130.7624,67.7623621 133.6154,62.4923621 138.3184,59.3683621 C143.0204,56.2443621 149.8824,55.8933621 154.0134,59.7423621 C159.2264,64.6003621 158.4094,73.6923621 156.0624,79.7443621 C152.2304,89.6273621 146.5234,98.7123621 139.8784,106.971362 C133.6084,114.768362 126.4984,121.859362 120.2514,129.674362 C111.9084,140.110362 101.6064,152.799362 108.9204,169.210362" id="Stroke-61" stroke="#000" stroke-width="3" stroke-linecap="round" stroke-linejoin="round"/><path d="M-4.26325641e-14,31.7680621 C18.396,24.4820621 35.708,28.2370621 41.657,38.1000621 C44.833,43.3660621 45.823,52.1170621 41.99,58.7620621 C41.364,59.8470621 37.47,66.5990621 31.326,66.4260621 C28.533,66.3480621 24.427,64.8140621 23.328,61.0940621 C22.305,57.6310621 24.409,54.0360621 26.994,52.4300621 C30.605,50.1860621 34.965,51.9460621 36.992,52.7630621 C47.521,57.0120621 50.719,70.6250621 51.321,73.4250621" id="Stroke-62" stroke="#000" stroke-width="3" stroke-linecap="round" stroke-linejoin="round"/><path d="M107.9356,77.1283621 C107.6116,72.4413621 107.6236,62.7943621 112.9516,52.6743621 C122.3956,34.7363621 140.8476,29.9263621 143.9886,29.1623621" id="Stroke-63" stroke="#000" stroke-width="3" stroke-linecap="round" stroke-linejoin="round"/><polygon id="Fill-64" fill="#000" points="123.3887 281.640062 51.0087 281.640062 52.1897 261.802062 122.2087 261.802062"/><path d="M73.8448,247.626462 C73.8448,250.658462 71.3868,253.115462 68.3558,253.115462 C65.3238,253.115462 62.8658,250.658462 62.8658,247.626462 C62.8658,244.595462 65.3238,242.137462 68.3558,242.137462 C71.3868,242.137462 73.8448,244.595462 73.8448,247.626462" id="Fill-87" fill="#000"/><path d="M92.6885,247.626462 C92.6885,250.658462 90.2305,253.115462 87.1995,253.115462 C84.1675,253.115462 81.7095,250.658462 81.7095,247.626462 C81.7095,244.595462 84.1675,242.137462 87.1995,242.137462 C90.2305,242.137462 92.6885,244.595462 92.6885,247.626462" id="Fill-88" fill="#000"/><path d="M111.5323,247.626462 C111.5323,250.658462 109.0743,253.115462 106.0433,253.115462 C103.0113,253.115462 100.5533,250.658462 100.5533,247.626462 C100.5533,244.595462 103.0113,242.137462 106.0433,242.137462 C109.0743,242.137462 111.5323,244.595462 111.5323,247.626462" id="Fill-89" fill="#000"/><path d="M73.8448,331.531762 C73.8448,334.563762 71.3868,337.020762 68.3558,337.020762 C65.3238,337.020762 62.8658,334.563762 62.8658,331.531762 C62.8658,328.500762 65.3238,326.042762 68.3558,326.042762 C71.3868,326.042762 73.8448,328.500762 73.8448,331.531762" id="Fill-90" fill="#000"/><path d="M92.6885,331.531762 C92.6885,334.563762 90.2305,337.020762 87.1995,337.020762 C84.1675,337.020762 81.7095,334.563762 81.7095,331.531762 C81.7095,328.500762 84.1675,326.042762 87.1995,326.042762 C90.2305,326.042762 92.6885,328.500762 92.6885,331.531762" id="Fill-91" fill="#000"/><path d="M111.5323,331.531762 C111.5323,334.563762 109.0743,337.020762 106.0433,337.020762 C103.0113,337.020762 100.5533,334.563762 100.5533,331.531762 C100.5533,328.500762 103.0113,326.042762 106.0433,326.042762 C109.0743,326.042762 111.5323,328.500762 111.5323,331.531762" id="Fill-92" fill="#000"/><polyline id="Stroke-93" stroke="#000" stroke-width="3" stroke-linecap="round" stroke-linejoin="round" points="124.6436 311.165462 117.1556 307.165462 109.6716 311.165462 102.1856 307.165462 94.6986 311.165462 87.2116 307.165462 79.7236 311.165462 72.2326 307.165462 64.7436 311.165462 57.2486 307.165462 49.7546 311.165462"/><polyline id="Stroke-94" stroke="#000" stroke-width="3" stroke-linecap="round" stroke-linejoin="round" points="118.6436 222.190862 112.3616 218.190862 106.0766 222.190862 99.7896 218.190862 93.5006 222.190862 87.2136 218.190862 80.9236 222.190862 74.6376 218.190862 68.3466 222.190862 62.0506 218.190862 55.7546 222.190862"/></g></g></g></g></svg>